<svg xmlns="http://www.w3.org/2000/svg" version="1.1" xmlns:xlink="http://www.w3.org/1999/xlink" xmlns:svgjs="http://svgjs.com/svgjs" width="1440" height="425" preserveAspectRatio="none" viewBox="0 0 1440 425"><g mask="url(&quot;#SvgjsMask1038&quot;)" fill="none"><rect width="1440" height="425" x="0" y="0" fill="rgba(253, 192, 148, 1)"></rect><path d="M0,659.898C124.543,665.195,243.419,609.118,345.239,537.203C444.152,467.341,530.382,374.426,567.42,259.132C602.601,149.621,555.789,36.242,542.893,-78.056C529.515,-196.629,578.542,-344.536,490.255,-424.809C399.95,-506.917,253.984,-439.587,132.487,-451.209C38.637,-460.187,-49.929,-503.159,-142.508,-485.339C-240.542,-466.469,-340.72,-427.148,-401.996,-348.331C-462.273,-270.8,-454.185,-164.516,-467.571,-67.227C-480.869,29.422,-503.243,124.477,-480.087,219.248C-453.645,327.464,-408.939,433.289,-326.869,508.618C-236.59,591.481,-122.431,654.691,0,659.898" fill="#fdb480"></path><path d="M1440 857.233C1519.88 840.3720000000001 1539.821 731.259 1607.1109999999999 685.029 1671.1100000000001 641.06 1776.867 663.498 1817.922 597.591 1858.426 532.568 1824.577 446.065 1801.461 373.03 1780.982 308.327 1733.974 259.79200000000003 1693.713 205.157 1649.589 145.279 1625.467 57.35300000000001 1553.902 37.08499999999998 1482.296 16.805000000000007 1416.984 82.71800000000002 1346.581 106.844 1280.065 129.63799999999998 1201.993 126.08600000000001 1151.473 174.99 1099.551 225.251 1088.8690000000001 301.776 1072.495 372.161 1054.696 448.672 1024.518 528.595 1052.101 602.1469999999999 1080.219 677.125 1153.528 722.6510000000001 1220.435 766.649 1287.953 811.049 1360.933 873.923 1440 857.233" fill="#fdcca8"></path></g><defs><mask id="SvgjsMask1038"><rect width="1440" height="425" fill="#ffffff"></rect></mask></defs></svg>